<svg width="58" height="61" viewBox="0 0 58 61" fill="none" xmlns="http://www.w3.org/2000/svg">
<path d="M1.40474 43.6184C0.412948 41.9534 1.09787 39.7959 2.86842 39.0079L18.55 32.0282C19.4979 31.6063 20.5906 31.6647 21.4881 32.1852L30.4489 37.3819C31.3416 37.8996 31.9337 38.8123 32.0427 39.8385L33.8723 57.0698C34.0763 58.9912 32.5613 60.6617 30.6291 60.6458L23.3803 60.5862C21.4295 60.5702 19.9367 58.8439 20.2024 56.9112L21.6519 46.3658C21.7708 45.5008 21.3537 44.65 20.597 44.2143C19.8393 43.778 18.8927 43.845 18.2041 44.3838L9.94874 50.8426C8.414 52.0434 6.17381 51.6246 5.17657 49.9504L1.40474 43.6184Z" fill="white"/>
<path fill-rule="evenodd" clip-rule="evenodd" d="M35.4586 36.9103L49.3163 47.1038C50.1009 47.681 51.2139 47.4387 51.6877 46.5876L55.2788 40.1365C55.7517 39.287 55.3736 38.2152 54.4722 37.8506L44.6537 33.8786C43.2317 33.3033 42.3011 31.9228 42.3011 30.389C42.3011 28.8648 43.2202 27.491 44.629 26.9094L54.4819 22.8422C55.3788 22.4719 55.7501 21.4008 55.2747 20.5549L51.6965 14.1871C51.2206 13.3403 50.1107 13.101 49.3282 13.6766L35.4586 23.8786C35.0442 24.1833 34.7996 24.667 34.7996 25.1814V35.6075C34.7996 36.1218 35.0442 36.6055 35.4586 36.9103ZM34.5002 38.2131C33.6716 37.6036 33.1823 36.6362 33.1823 35.6075V25.1814C33.1823 24.1527 33.6716 23.1853 34.5003 22.5757L48.3699 12.3738C49.9349 11.2226 52.1546 11.7011 53.1064 13.3948L56.6847 19.7626C57.6354 21.4544 56.8928 23.5966 55.099 24.3371L45.2462 28.4044C44.4426 28.7361 43.9184 29.5196 43.9184 30.389C43.9184 31.2638 44.4492 32.0512 45.2602 32.3793L55.0788 36.3513C56.8814 37.0806 57.6378 39.2241 56.692 40.9232L53.1008 47.3743C52.1533 49.0764 49.9272 49.561 48.3579 48.4066L34.5002 38.2131Z" fill="#2DEBFC"/>
<path d="M30.4488 23.2879C31.3415 22.7702 31.9336 21.8575 32.0426 20.8313L33.869 3.63003C34.0742 1.69792 32.5417 0.0222051 30.599 0.0542862L23.3492 0.174007C21.4094 0.206041 19.9339 1.92667 20.1981 3.8487L21.6513 14.4207C21.7705 15.2879 21.3522 16.1409 20.5935 16.5777C19.8372 17.0129 18.8929 16.9482 18.2032 16.4137L9.8345 9.92952C8.29606 8.7375 6.06094 9.16411 5.06968 10.839L1.39055 17.0553C0.405326 18.7199 1.0917 20.8714 2.85892 21.658L18.55 28.6417C19.4978 29.0635 20.5905 29.0051 21.488 28.4846L30.4488 23.2879Z" fill="#2C85FC"/>
</svg>
